<svg xmlns="http://www.w3.org/2000/svg" viewBox="0 0 118.9 127.47"><rect y="27.47" width="100" height="100"/><path d="M26.29,111,34,106.41c1.47,2.61,2.82,4.83,6,4.83s5-1.21,5-5.91V73.38h9.4v32.08c0,9.74-5.71,14.17-14,14.17-7.52,0-11.88-3.9-14.1-8.59" style="fill:#f7df1e"/><path d="M59.52,110l7.66-4.43c2,3.29,4.63,5.71,9.26,5.71,3.89,0,6.38-2,6.38-4.64,0-3.22-2.55-4.36-6.85-6.24l-2.35-1c-6.78-2.88-11.28-6.51-11.28-14.16,0-7.05,5.37-12.42,13.76-12.42,6,0,10.27,2.08,13.36,7.52l-7.32,4.7c-1.61-2.89-3.35-4-6-4s-4.49,1.75-4.49,4c0,2.82,1.74,4,5.77,5.71l2.35,1c8,3.43,12.48,6.92,12.48,14.77,0,8.46-6.64,13.09-15.57,13.09-8.73,0-14.36-4.16-17.12-9.6" style="fill:#f7df1e"/><path d="M103.69,5.08l10.13,10.17a3.69,3.69,0,0,1,.14,5.06L76.72,61.63,57.48,42.32,98.65,4.93A3.66,3.66,0,0,1,103.69,5.08Z" style="stroke:#000;stroke-linejoin:round;stroke-width:8px"/><path d="M103.69,5.08l10.13,10.17a3.69,3.69,0,0,1,.14,5.06L76.72,61.63,57.48,42.32,98.65,4.93A3.66,3.66,0,0,1,103.69,5.08Z" style="fill:#f7df1e;stroke:#f7df1e;stroke-linejoin:round;stroke-width:2px"/><path d="M59.18,68.18a27.2,27.2,0,0,1,17.54-6.55L67.1,52l-9.62-9.66A31.89,31.89,0,0,1,51,59.92Z" style="stroke:#f7df1e;stroke-linejoin:round;stroke-width:2px"/><path d="M45.88,68.53,52.7,61.7l4.7,4.7L55,68.79a2,2,0,0,1-1.42.59H46.23A.49.49,0,0,1,45.88,68.53Z" style="fill:#f7df1e"/></svg>